<?xml version="1.0" encoding="utf-8"?>
<!-- Generator: Adobe Illustrator 29.4.0, SVG Export Plug-In . SVG Version: 9.03 Build 0)  -->
<svg version="1.1" id="Layer_1" xmlns="http://www.w3.org/2000/svg" xmlns:xlink="http://www.w3.org/1999/xlink" x="0px" y="0px"
	 viewBox="0 0 169 86.9" style="enable-background:new 0 0 169 86.9;" xml:space="preserve">
<style type="text/css">
	.st0{fill:#FFFFFF;}
	.st1{fill:#0041C8;}
	.st2{fill:url(#SVGID_1_);}
</style>
<g>
	<g>
		<g>
			<path class="st0" d="M92.9,56.7h-5.2v14.5h-1.4V56.7H81l0.2-1.2h12L92.9,56.7z"/>
			<path class="st0" d="M97.3,59.7c1,0,1.8,0.1,2.4,0.4c0.6,0.2,1.1,0.6,1.5,1.1c0.4,0.5,0.6,1,0.8,1.7c0.2,0.7,0.2,1.4,0.2,2.2v1.2
				c0,0.8-0.1,1.5-0.3,2.2c-0.2,0.7-0.5,1.2-0.8,1.7c-0.4,0.5-0.9,0.8-1.5,1.1c-0.6,0.3-1.4,0.4-2.3,0.4c-1,0-1.8-0.1-2.4-0.4
				c-0.6-0.2-1.1-0.6-1.5-1.1c-0.4-0.5-0.7-1-0.8-1.7c-0.2-0.7-0.2-1.4-0.2-2.2V65c0-0.8,0.1-1.5,0.3-2.2c0.2-0.7,0.5-1.2,0.9-1.7
				c0.4-0.5,0.9-0.8,1.5-1.1C95.6,59.8,96.4,59.7,97.3,59.7z M97.3,70.3c0.7,0,1.2-0.1,1.7-0.2c0.5-0.2,0.8-0.4,1.1-0.8
				c0.3-0.3,0.5-0.8,0.6-1.3c0.1-0.5,0.2-1.2,0.2-1.9v-1c0-0.8-0.1-1.4-0.2-2c-0.1-0.5-0.3-1-0.6-1.3c-0.3-0.3-0.6-0.6-1.1-0.7
				c-0.5-0.2-1-0.2-1.7-0.2c-0.7,0-1.2,0.1-1.7,0.2c-0.5,0.2-0.8,0.4-1.1,0.8c-0.3,0.3-0.5,0.8-0.6,1.3c-0.1,0.5-0.2,1.2-0.2,1.9v1
				c0,0.8,0.1,1.4,0.2,2c0.1,0.5,0.3,1,0.6,1.3c0.3,0.3,0.6,0.6,1.1,0.8C96,70.2,96.6,70.3,97.3,70.3z"/>
			<path class="st0" d="M109.3,59.7c1,0,1.8,0.1,2.4,0.4c0.6,0.2,1.1,0.6,1.5,1.1c0.4,0.5,0.6,1,0.8,1.7c0.2,0.7,0.2,1.4,0.2,2.2
				v1.2c0,0.8-0.1,1.5-0.3,2.2c-0.2,0.7-0.5,1.2-0.8,1.7c-0.4,0.5-0.9,0.8-1.5,1.1c-0.6,0.3-1.4,0.4-2.3,0.4c-1,0-1.8-0.1-2.4-0.4
				c-0.6-0.2-1.1-0.6-1.5-1.1c-0.4-0.5-0.7-1-0.8-1.7c-0.2-0.7-0.2-1.4-0.2-2.2V65c0-0.8,0.1-1.5,0.3-2.2c0.2-0.7,0.5-1.2,0.9-1.7
				c0.4-0.5,0.9-0.8,1.5-1.1C107.6,59.8,108.4,59.7,109.3,59.7z M109.3,70.3c0.7,0,1.2-0.1,1.7-0.2c0.5-0.2,0.8-0.4,1.1-0.8
				c0.3-0.3,0.5-0.8,0.6-1.3c0.1-0.5,0.2-1.2,0.2-1.9v-1c0-0.8-0.1-1.4-0.2-2c-0.1-0.5-0.3-1-0.6-1.3c-0.3-0.3-0.6-0.6-1.1-0.7
				c-0.5-0.2-1-0.2-1.7-0.2c-0.7,0-1.2,0.1-1.7,0.2c-0.5,0.2-0.8,0.4-1.1,0.8c-0.3,0.3-0.5,0.8-0.6,1.3c-0.1,0.5-0.2,1.2-0.2,1.9v1
				c0,0.8,0.1,1.4,0.2,2c0.1,0.5,0.3,1,0.6,1.3c0.3,0.3,0.6,0.6,1.1,0.8C108.1,70.2,108.6,70.3,109.3,70.3z"/>
			<path class="st0" d="M116.7,54.8h1.3v16.4h-1.3V54.8z"/>
			<path class="st0" d="M125.3,71.5c-0.8,0-1.5-0.1-2.2-0.3c-0.7-0.2-1.5-0.5-2.1-0.8V54.8h1.3v6.6c0.4-0.6,0.9-1.1,1.5-1.3
				c0.6-0.3,1.3-0.4,2.2-0.4c0.7,0,1.3,0.1,1.8,0.3c0.6,0.2,1,0.5,1.4,0.9c0.4,0.4,0.7,1,0.9,1.7c0.2,0.7,0.3,1.5,0.3,2.5v1
				c0,1.8-0.4,3.2-1.3,4.1C128.3,71,127,71.5,125.3,71.5z M125.2,70.3c0.7,0,1.3-0.1,1.8-0.3c0.5-0.2,0.9-0.4,1.2-0.8
				c0.3-0.4,0.5-0.8,0.7-1.4c0.1-0.6,0.2-1.2,0.2-2v-0.5c0-0.7-0.1-1.3-0.2-1.9c-0.1-0.6-0.3-1-0.5-1.4c-0.3-0.4-0.6-0.7-1-0.9
				c-0.4-0.2-1-0.3-1.6-0.3c-0.5,0-1,0.1-1.4,0.2c-0.4,0.1-0.8,0.4-1.1,0.7c-0.3,0.3-0.5,0.7-0.7,1.2c-0.2,0.5-0.3,1.1-0.3,1.8v5
				c0.4,0.2,0.9,0.4,1.3,0.5C124.1,70.3,124.6,70.3,125.2,70.3z"/>
			<path class="st0" d="M137.6,59.7c1,0,1.8,0.1,2.4,0.4c0.6,0.2,1.1,0.6,1.5,1.1c0.4,0.5,0.6,1,0.8,1.7c0.2,0.7,0.2,1.4,0.2,2.2
				v1.2c0,0.8-0.1,1.5-0.3,2.2c-0.2,0.7-0.5,1.2-0.8,1.7c-0.4,0.5-0.9,0.8-1.5,1.1c-0.6,0.3-1.4,0.4-2.3,0.4c-1,0-1.8-0.1-2.4-0.4
				c-0.6-0.2-1.1-0.6-1.5-1.1c-0.4-0.5-0.7-1-0.8-1.7c-0.2-0.7-0.2-1.4-0.2-2.2V65c0-0.8,0.1-1.5,0.3-2.2c0.2-0.7,0.5-1.2,0.9-1.7
				c0.4-0.5,0.9-0.8,1.5-1.1C136,59.8,136.7,59.7,137.6,59.7z M137.6,70.3c0.7,0,1.2-0.1,1.7-0.2c0.5-0.2,0.8-0.4,1.1-0.8
				c0.3-0.3,0.5-0.8,0.6-1.3c0.1-0.5,0.2-1.2,0.2-1.9v-1c0-0.8-0.1-1.4-0.2-2c-0.1-0.5-0.3-1-0.6-1.3c-0.3-0.3-0.6-0.6-1.1-0.7
				c-0.5-0.2-1-0.2-1.7-0.2c-0.7,0-1.2,0.1-1.7,0.2c-0.5,0.2-0.8,0.4-1.1,0.8c-0.3,0.3-0.5,0.8-0.6,1.3c-0.1,0.5-0.2,1.2-0.2,1.9v1
				c0,0.8,0.1,1.4,0.2,2c0.1,0.5,0.3,1,0.6,1.3c0.3,0.3,0.6,0.6,1.1,0.8C136.4,70.2,136.9,70.3,137.6,70.3z"/>
			<path class="st0" d="M143.7,59.9h1.5l3.1,4.5l3.1-4.5h1.5l-3.9,5.5l4.2,5.8h-1.6l-3.4-4.9l-3.4,4.9h-1.5l4.2-5.9L143.7,59.9z"/>
		</g>
	</g>
	<rect x="15.6" y="17.2" class="st0" width="54" height="54"/>
	<g>
		<polyline class="st1" points="34.3,52.4 34.3,68 18.8,68 18.8,52.4 34.3,52.4 		"/>
		<linearGradient id="SVGID_1_" gradientUnits="userSpaceOnUse" x1="58.8712" y1="15.9702" x2="31.0985" y2="64.0741">
			<stop  offset="7.000001e-02" style="stop-color:#0064FF"/>
			<stop  offset="0.84" style="stop-color:#00B4FF"/>
		</linearGradient>
		<polygon class="st2" points="18.8,20.3 18.8,48.8 34.3,48.8 37.9,48.8 37.9,52.4 37.9,68 66.4,68 66.4,20.3 		"/>
	</g>
	<g>
		<path class="st0" d="M102.4,17.2l-0.7,5.3H87.9v7.6h13l-0.7,5.3H87.9v8.1h14.5l-0.7,5.3H81.2V17.2H102.4z"/>
		<path class="st0" d="M105.9,48.9V17.2h12.6c1.7,0,3.1,0.2,4.4,0.6s2.2,1,3,1.7c0.8,0.7,1.4,1.6,1.8,2.6c0.4,1,0.6,2,0.6,3.2V26
			c0,1.4-0.3,2.6-0.9,3.7c-0.6,1.1-1.5,2-2.8,2.6c1.4,0.6,2.5,1.5,3.3,2.8c0.8,1.3,1.1,2.8,1.1,4.4v0.7c0,2.8-0.9,4.9-2.7,6.4
			c-1.8,1.5-4.6,2.3-8.3,2.3H105.9z M112.3,30h5.6c1.2,0,2.1-0.3,2.8-0.9c0.7-0.6,1-1.4,1-2.6v-0.6c0-2.4-1.4-3.6-4.2-3.6h-5.2V30z
			 M112.3,43.8h5.7c1.4,0,2.5-0.3,3.3-0.9c0.8-0.6,1.1-1.6,1.1-2.9v-0.8c0-2.8-1.5-4.2-4.6-4.2h-5.5V43.8z"/>
		<path class="st0" d="M140.9,49.3c-1.8,0-3.6-0.1-5.3-0.4c-1.7-0.3-3.2-0.6-4.4-1l1.1-5.2c1.2,0.3,2.5,0.6,4,0.8
			c1.4,0.3,2.9,0.4,4.4,0.4c2.1,0,3.7-0.3,4.6-1c1-0.7,1.4-1.7,1.4-3.2c0-0.7-0.1-1.3-0.3-1.8c-0.2-0.5-0.5-0.9-1-1.1
			c-0.4-0.3-1-0.5-1.6-0.6c-0.6-0.1-1.4-0.3-2.2-0.4l-2.2-0.4c-1-0.1-1.9-0.4-2.9-0.8c-0.9-0.4-1.8-0.9-2.5-1.5
			c-0.7-0.7-1.3-1.5-1.8-2.6c-0.5-1.1-0.7-2.4-0.7-4c0-6.4,4.2-9.6,12.5-9.6c1.7,0,3.2,0.1,4.6,0.4c1.4,0.3,2.7,0.6,3.9,1l-1,5.2
			c-1-0.3-2.2-0.5-3.4-0.8c-1.3-0.2-2.6-0.3-4.1-0.3c-2.2,0-3.8,0.3-4.7,0.9c-0.9,0.6-1.4,1.6-1.4,3c0,1.1,0.3,2,1,2.6
			c0.7,0.6,1.8,1,3.5,1.2l2.1,0.3c1,0.1,2.1,0.4,3.1,0.7c1.1,0.3,2,0.8,2.8,1.5c0.8,0.7,1.5,1.6,2,2.7c0.5,1.1,0.8,2.6,0.8,4.3
			c0,3.4-1.1,5.9-3.2,7.5C148.1,48.5,145,49.3,140.9,49.3z"/>
	</g>
</g>
</svg>
