<?xml version="1.0" encoding="utf-8"?>
<!-- Generator: Adobe Illustrator 29.4.0, SVG Export Plug-In . SVG Version: 9.03 Build 0)  -->
<svg version="1.1" id="Layer_1" xmlns="http://www.w3.org/2000/svg" xmlns:xlink="http://www.w3.org/1999/xlink" x="0px" y="0px"
	 viewBox="0 0 178.7 88.6" style="enable-background:new 0 0 178.7 88.6;" xml:space="preserve">
<style type="text/css">
	.st0{fill:#0078FF;}
	.st1{fill:#0041C8;}
	.st2{fill:url(#SVGID_1_);}
</style>
<g>
	<g>
		<g>
			<path class="st0" d="M97.1,55.8h-5.5v15.4h-1.5V55.8h-5.7l0.2-1.3h12.7L97.1,55.8z"/>
			<path class="st0" d="M101.7,59c1,0,1.9,0.1,2.5,0.4c0.7,0.3,1.2,0.6,1.6,1.1c0.4,0.5,0.7,1.1,0.8,1.8c0.2,0.7,0.2,1.5,0.2,2.3
				v1.3c0,0.9-0.1,1.6-0.3,2.3c-0.2,0.7-0.5,1.3-0.9,1.8c-0.4,0.5-0.9,0.9-1.6,1.1c-0.7,0.3-1.5,0.4-2.4,0.4c-1,0-1.9-0.1-2.5-0.4
				c-0.7-0.3-1.2-0.6-1.6-1.1c-0.4-0.5-0.7-1.1-0.9-1.8c-0.2-0.7-0.2-1.5-0.2-2.4v-1.3c0-0.9,0.1-1.6,0.3-2.3
				c0.2-0.7,0.5-1.3,0.9-1.8c0.4-0.5,1-0.9,1.6-1.1C99.9,59.1,100.7,59,101.7,59z M101.7,70.3c0.7,0,1.3-0.1,1.8-0.2
				c0.5-0.2,0.9-0.4,1.2-0.8c0.3-0.4,0.5-0.8,0.6-1.4c0.1-0.6,0.2-1.3,0.2-2.1v-1.1c0-0.8-0.1-1.5-0.2-2.1c-0.1-0.6-0.4-1-0.6-1.4
				c-0.3-0.4-0.7-0.6-1.2-0.8c-0.5-0.2-1.1-0.2-1.8-0.2c-0.7,0-1.3,0.1-1.8,0.3s-0.9,0.4-1.2,0.8c-0.3,0.4-0.5,0.8-0.6,1.4
				c-0.1,0.6-0.2,1.3-0.2,2.1v1c0,0.8,0.1,1.5,0.2,2.1c0.1,0.6,0.3,1,0.6,1.4c0.3,0.4,0.7,0.6,1.2,0.8
				C100.4,70.2,101,70.3,101.7,70.3z"/>
			<path class="st0" d="M114.4,59c1,0,1.9,0.1,2.5,0.4c0.7,0.3,1.2,0.6,1.6,1.1c0.4,0.5,0.7,1.1,0.8,1.8c0.2,0.7,0.2,1.5,0.2,2.3
				v1.3c0,0.9-0.1,1.6-0.3,2.3c-0.2,0.7-0.5,1.3-0.9,1.8c-0.4,0.5-0.9,0.9-1.6,1.1s-1.5,0.4-2.4,0.4c-1,0-1.9-0.1-2.5-0.4
				c-0.7-0.3-1.2-0.6-1.6-1.1c-0.4-0.5-0.7-1.1-0.9-1.8c-0.2-0.7-0.2-1.5-0.2-2.4v-1.3c0-0.9,0.1-1.6,0.3-2.3
				c0.2-0.7,0.5-1.3,0.9-1.8c0.4-0.5,1-0.9,1.6-1.1C112.7,59.1,113.5,59,114.4,59z M114.4,70.3c0.7,0,1.3-0.1,1.8-0.2
				c0.5-0.2,0.9-0.4,1.2-0.8c0.3-0.4,0.5-0.8,0.6-1.4c0.1-0.6,0.2-1.3,0.2-2.1v-1.1c0-0.8-0.1-1.5-0.2-2.1c-0.1-0.6-0.3-1-0.6-1.4
				c-0.3-0.4-0.7-0.6-1.2-0.8c-0.5-0.2-1.1-0.2-1.8-0.2c-0.7,0-1.3,0.1-1.8,0.3c-0.5,0.2-0.9,0.4-1.2,0.8c-0.3,0.4-0.5,0.8-0.6,1.4
				c-0.1,0.6-0.2,1.3-0.2,2.1v1c0,0.8,0.1,1.5,0.2,2.1c0.1,0.6,0.3,1,0.6,1.4c0.3,0.4,0.7,0.6,1.2,0.8
				C113.1,70.2,113.7,70.3,114.4,70.3z"/>
			<path class="st0" d="M122.3,53.8h1.4v17.5h-1.4V53.8z"/>
			<path class="st0" d="M131.4,71.5c-0.8,0-1.6-0.1-2.4-0.3c-0.8-0.2-1.5-0.5-2.3-0.9V53.8h1.4v7.1c0.4-0.7,1-1.1,1.6-1.4
				c0.6-0.3,1.4-0.4,2.3-0.4c0.7,0,1.4,0.1,2,0.3c0.6,0.2,1.1,0.5,1.5,1c0.4,0.5,0.8,1,1,1.8c0.2,0.7,0.4,1.6,0.4,2.7v1.1
				c0,1.9-0.5,3.4-1.4,4.3C134.6,71.1,133.2,71.5,131.4,71.5z M131.3,70.3c0.8,0,1.4-0.1,1.9-0.3c0.5-0.2,1-0.5,1.3-0.9
				c0.3-0.4,0.6-0.9,0.7-1.5c0.1-0.6,0.2-1.3,0.2-2.2V65c0-0.8-0.1-1.4-0.2-2c-0.1-0.6-0.3-1.1-0.6-1.5c-0.3-0.4-0.6-0.7-1.1-0.9
				c-0.5-0.2-1-0.3-1.8-0.3c-0.5,0-1,0.1-1.5,0.2c-0.5,0.1-0.8,0.4-1.2,0.7c-0.3,0.3-0.6,0.8-0.8,1.3c-0.2,0.5-0.3,1.2-0.3,2v5.3
				c0.5,0.2,0.9,0.4,1.4,0.5C130.1,70.2,130.7,70.3,131.3,70.3z"/>
			<path class="st0" d="M144.5,59c1,0,1.9,0.1,2.5,0.4c0.7,0.3,1.2,0.6,1.6,1.1c0.4,0.5,0.7,1.1,0.8,1.8c0.2,0.7,0.2,1.5,0.2,2.3
				v1.3c0,0.9-0.1,1.6-0.3,2.3c-0.2,0.7-0.5,1.3-0.9,1.8c-0.4,0.5-0.9,0.9-1.6,1.1s-1.5,0.4-2.4,0.4c-1,0-1.9-0.1-2.5-0.4
				c-0.7-0.3-1.2-0.6-1.6-1.1c-0.4-0.5-0.7-1.1-0.9-1.8c-0.2-0.7-0.2-1.5-0.2-2.4v-1.3c0-0.9,0.1-1.6,0.3-2.3
				c0.2-0.7,0.5-1.3,0.9-1.8c0.4-0.5,1-0.9,1.6-1.1C142.8,59.1,143.6,59,144.5,59z M144.5,70.3c0.7,0,1.3-0.1,1.8-0.2
				c0.5-0.2,0.9-0.4,1.2-0.8c0.3-0.4,0.5-0.8,0.6-1.4c0.1-0.6,0.2-1.3,0.2-2.1v-1.1c0-0.8-0.1-1.5-0.2-2.1c-0.1-0.6-0.3-1-0.6-1.4
				c-0.3-0.4-0.7-0.6-1.2-0.8c-0.5-0.2-1.1-0.2-1.8-0.2c-0.7,0-1.3,0.1-1.8,0.3c-0.5,0.2-0.9,0.4-1.2,0.8c-0.3,0.4-0.5,0.8-0.6,1.4
				c-0.1,0.6-0.2,1.3-0.2,2.1v1c0,0.8,0.1,1.5,0.2,2.1c0.1,0.6,0.3,1,0.6,1.4c0.3,0.4,0.7,0.6,1.2,0.8
				C143.2,70.2,143.8,70.3,144.5,70.3z"/>
			<path class="st0" d="M151,59.2h1.6L156,64l3.3-4.7h1.6l-4.1,5.8l4.5,6.2h-1.7l-3.7-5.2l-3.7,5.2h-1.6l4.5-6.3L151,59.2z"/>
		</g>
	</g>
	<g>
		<polyline class="st1" points="35.2,53.7 35.2,71.2 17.7,71.2 17.7,53.7 35.2,53.7 		"/>
		<linearGradient id="SVGID_1_" gradientUnits="userSpaceOnUse" x1="62.8206" y1="12.6926" x2="31.5945" y2="66.7778">
			<stop  offset="7.000001e-02" style="stop-color:#0064FF"/>
			<stop  offset="0.84" style="stop-color:#00B4FF"/>
		</linearGradient>
		<polygon class="st2" points="17.7,17.6 17.7,49.7 35.2,49.7 39.3,49.7 39.3,53.7 39.3,71.2 71.3,71.2 71.3,17.6 		"/>
	</g>
	<g>
		<path class="st0" d="M106.2,17.6l-0.7,5.2H92v7.5h12.8l-0.7,5.2H92v8h14.2l-0.7,5.2H85.4V17.6H106.2z"/>
		<path class="st0" d="M109.7,48.7V17.6h12.4c1.7,0,3.1,0.2,4.3,0.6c1.2,0.4,2.2,0.9,3,1.7c0.8,0.7,1.4,1.6,1.7,2.5
			c0.4,1,0.5,2,0.5,3.2v0.7c0,1.3-0.3,2.6-0.9,3.6c-0.6,1.1-1.5,1.9-2.7,2.5c1.4,0.6,2.5,1.5,3.2,2.7c0.7,1.3,1.1,2.7,1.1,4.3v0.7
			c0,2.7-0.9,4.8-2.6,6.3c-1.8,1.5-4.5,2.3-8.2,2.3H109.7z M116,30.1h5.5c1.2,0,2.1-0.3,2.8-0.9c0.7-0.6,1-1.4,1-2.6v-0.6
			c0-2.4-1.4-3.5-4.1-3.5H116V30.1z M116,43.7h5.6c1.4,0,2.5-0.3,3.2-0.9c0.7-0.6,1.1-1.6,1.1-2.8v-0.7c0-2.7-1.5-4.1-4.5-4.1H116
			V43.7z"/>
		<path class="st0" d="M144.1,49.2c-1.8,0-3.5-0.1-5.3-0.4c-1.7-0.3-3.2-0.6-4.4-1l1.1-5.1c1.2,0.3,2.5,0.6,3.9,0.8
			c1.4,0.2,2.9,0.4,4.4,0.4c2.1,0,3.6-0.3,4.6-1c0.9-0.6,1.4-1.7,1.4-3.2c0-0.7-0.1-1.3-0.3-1.8c-0.2-0.5-0.5-0.8-0.9-1.1
			c-0.4-0.3-0.9-0.5-1.6-0.6c-0.6-0.1-1.4-0.3-2.2-0.4l-2.1-0.4c-1-0.1-1.9-0.4-2.8-0.7c-0.9-0.4-1.8-0.9-2.5-1.5
			c-0.7-0.7-1.3-1.5-1.8-2.6c-0.5-1.1-0.7-2.4-0.7-3.9c0-6.3,4.1-9.5,12.3-9.5c1.7,0,3.2,0.1,4.6,0.4c1.4,0.2,2.7,0.6,3.9,0.9
			l-1,5.1c-1-0.3-2.2-0.5-3.4-0.7c-1.2-0.2-2.6-0.3-4-0.3c-2.2,0-3.7,0.3-4.6,0.9c-0.9,0.6-1.4,1.6-1.4,3c0,1.1,0.3,1.9,1,2.5
			c0.7,0.6,1.8,1,3.5,1.2l2.1,0.3c1,0.1,2,0.4,3.1,0.7c1,0.3,2,0.8,2.8,1.5c0.8,0.7,1.5,1.5,2,2.6c0.5,1.1,0.8,2.5,0.8,4.2
			c0,3.4-1.1,5.8-3.2,7.4C151.2,48.4,148.1,49.2,144.1,49.2z"/>
	</g>
</g>
</svg>
