<?xml version="1.0" encoding="utf-8"?>
<!-- Generator: Adobe Illustrator 29.4.0, SVG Export Plug-In . SVG Version: 9.03 Build 0)  -->
<svg version="1.1" id="Layer_1" xmlns="http://www.w3.org/2000/svg" xmlns:xlink="http://www.w3.org/1999/xlink" x="0px" y="0px"
	 viewBox="0 0 286.3 88.6" style="enable-background:new 0 0 286.3 88.6;" xml:space="preserve">
<style type="text/css">
	.st0{fill:#9900A5;}
	.st1{fill:#0041C8;}
	.st2{fill:url(#SVGID_1_);}
</style>
<g>
	<g>
		<g>
			<g>
				<g>
					<path class="st0" d="M97.2,55.7h-5.5v15.4h-1.5V55.7h-5.7l0.2-1.3h12.7L97.2,55.7z"/>
					<path class="st0" d="M101.7,58.8c1,0,1.9,0.1,2.5,0.4c0.7,0.3,1.2,0.6,1.6,1.1c0.4,0.5,0.7,1.1,0.8,1.8
						c0.2,0.7,0.2,1.5,0.2,2.3v1.3c0,0.9-0.1,1.6-0.3,2.3c-0.2,0.7-0.5,1.3-0.9,1.8c-0.4,0.5-0.9,0.9-1.6,1.1
						c-0.7,0.3-1.5,0.4-2.4,0.4c-1,0-1.9-0.1-2.5-0.4c-0.7-0.3-1.2-0.6-1.6-1.1c-0.4-0.5-0.7-1.1-0.9-1.8c-0.2-0.7-0.2-1.5-0.2-2.4
						v-1.3c0-0.9,0.1-1.6,0.3-2.3c0.2-0.7,0.5-1.3,0.9-1.8c0.4-0.5,1-0.9,1.6-1.1C100,58.9,100.8,58.8,101.7,58.8z M101.7,70.1
						c0.7,0,1.3-0.1,1.8-0.2c0.5-0.2,0.9-0.4,1.2-0.8c0.3-0.4,0.5-0.8,0.6-1.4c0.1-0.6,0.2-1.3,0.2-2.1v-1.1c0-0.8-0.1-1.5-0.2-2.1
						c-0.1-0.6-0.3-1-0.6-1.4c-0.3-0.4-0.7-0.6-1.2-0.8c-0.5-0.2-1.1-0.2-1.8-0.2c-0.7,0-1.3,0.1-1.8,0.3c-0.5,0.2-0.9,0.4-1.2,0.8
						c-0.3,0.4-0.5,0.8-0.6,1.4c-0.1,0.6-0.2,1.3-0.2,2.1v1c0,0.8,0.1,1.5,0.2,2.1c0.1,0.6,0.3,1,0.6,1.4c0.3,0.4,0.7,0.6,1.2,0.8
						C100.4,70,101,70.1,101.7,70.1z"/>
					<path class="st0" d="M114.5,58.8c1,0,1.9,0.1,2.5,0.4c0.7,0.3,1.2,0.6,1.6,1.1c0.4,0.5,0.7,1.1,0.8,1.8
						c0.2,0.7,0.2,1.5,0.2,2.3v1.3c0,0.9-0.1,1.6-0.3,2.3c-0.2,0.7-0.5,1.3-0.9,1.8c-0.4,0.5-0.9,0.9-1.6,1.1s-1.5,0.4-2.4,0.4
						c-1,0-1.9-0.1-2.5-0.4c-0.7-0.3-1.2-0.6-1.6-1.1c-0.4-0.5-0.7-1.1-0.9-1.8c-0.2-0.7-0.2-1.5-0.2-2.4v-1.3
						c0-0.9,0.1-1.6,0.3-2.3c0.2-0.7,0.5-1.3,0.9-1.8c0.4-0.5,1-0.9,1.6-1.1C112.8,58.9,113.6,58.8,114.5,58.8z M114.5,70.1
						c0.7,0,1.3-0.1,1.8-0.2c0.5-0.2,0.9-0.4,1.2-0.8c0.3-0.4,0.5-0.8,0.6-1.4c0.1-0.6,0.2-1.3,0.2-2.1v-1.1c0-0.8-0.1-1.5-0.2-2.1
						c-0.1-0.6-0.3-1-0.6-1.4c-0.3-0.4-0.7-0.6-1.2-0.8c-0.5-0.2-1.1-0.2-1.8-0.2c-0.7,0-1.3,0.1-1.8,0.3c-0.5,0.2-0.9,0.4-1.2,0.8
						c-0.3,0.4-0.5,0.8-0.6,1.4c-0.1,0.6-0.2,1.3-0.2,2.1v1c0,0.8,0.1,1.5,0.2,2.1c0.1,0.6,0.3,1,0.6,1.4c0.3,0.4,0.7,0.6,1.2,0.8
						C113.2,70,113.8,70.1,114.5,70.1z"/>
					<path class="st0" d="M122.4,53.6h1.4v17.4h-1.4V53.6z"/>
					<path class="st0" d="M131.4,71.4c-0.8,0-1.6-0.1-2.4-0.3c-0.8-0.2-1.5-0.5-2.3-0.9V53.6h1.4v7c0.4-0.7,1-1.1,1.6-1.4
						c0.6-0.3,1.4-0.4,2.3-0.4c0.7,0,1.4,0.1,1.9,0.3c0.6,0.2,1.1,0.5,1.5,1c0.4,0.5,0.8,1,1,1.8c0.2,0.7,0.4,1.6,0.4,2.7v1.1
						c0,1.9-0.5,3.4-1.4,4.3S133.3,71.4,131.4,71.4z M131.4,70.1c0.8,0,1.4-0.1,1.9-0.3c0.5-0.2,1-0.5,1.3-0.9
						c0.3-0.4,0.6-0.9,0.7-1.5c0.1-0.6,0.2-1.3,0.2-2.1v-0.5c0-0.8-0.1-1.4-0.2-2c-0.1-0.6-0.3-1.1-0.6-1.5
						c-0.3-0.4-0.6-0.7-1.1-0.9c-0.5-0.2-1-0.3-1.7-0.3c-0.5,0-1,0.1-1.5,0.2c-0.5,0.1-0.8,0.4-1.2,0.7c-0.3,0.3-0.6,0.8-0.8,1.3
						c-0.2,0.5-0.3,1.2-0.3,1.9v5.3c0.5,0.2,0.9,0.4,1.4,0.5C130.2,70.1,130.7,70.1,131.4,70.1z"/>
					<path class="st0" d="M144.5,58.8c1,0,1.9,0.1,2.5,0.4c0.7,0.3,1.2,0.6,1.6,1.1c0.4,0.5,0.7,1.1,0.8,1.8
						c0.2,0.7,0.2,1.5,0.2,2.3v1.3c0,0.9-0.1,1.6-0.3,2.3c-0.2,0.7-0.5,1.3-0.9,1.8c-0.4,0.5-0.9,0.9-1.6,1.1s-1.5,0.4-2.4,0.4
						c-1,0-1.9-0.1-2.5-0.4c-0.7-0.3-1.2-0.6-1.6-1.1c-0.4-0.5-0.7-1.1-0.9-1.8c-0.2-0.7-0.2-1.5-0.2-2.4v-1.3
						c0-0.9,0.1-1.6,0.3-2.3c0.2-0.7,0.5-1.3,0.9-1.8c0.4-0.5,1-0.9,1.6-1.1C142.8,58.9,143.6,58.8,144.5,58.8z M144.5,70.1
						c0.7,0,1.3-0.1,1.8-0.2c0.5-0.2,0.9-0.4,1.2-0.8c0.3-0.4,0.5-0.8,0.6-1.4c0.1-0.6,0.2-1.3,0.2-2.1v-1.1c0-0.8-0.1-1.5-0.2-2.1
						c-0.1-0.6-0.3-1-0.6-1.4c-0.3-0.4-0.7-0.6-1.2-0.8c-0.5-0.2-1.1-0.2-1.8-0.2c-0.7,0-1.3,0.1-1.8,0.3s-0.9,0.4-1.2,0.8
						c-0.3,0.4-0.5,0.8-0.6,1.4c-0.1,0.6-0.2,1.3-0.2,2.1v1c0,0.8,0.1,1.5,0.2,2.1c0.1,0.6,0.3,1,0.6,1.4c0.3,0.4,0.7,0.6,1.2,0.8
						C143.2,70,143.8,70.1,144.5,70.1z"/>
					<path class="st0" d="M151,59.1h1.6l3.3,4.7l3.3-4.7h1.6l-4.1,5.8l4.5,6.2h-1.7l-3.7-5.2l-3.7,5.2h-1.6l4.5-6.2L151,59.1z"/>
				</g>
			</g>
			<g>
				<polyline class="st1" points="35.2,53.6 35.2,71.1 17.7,71.1 17.7,53.6 35.2,53.6 				"/>
				<linearGradient id="SVGID_1_" gradientUnits="userSpaceOnUse" x1="62.841" y1="12.5566" x2="31.6008" y2="66.6661">
					<stop  offset="7.000000e-02" style="stop-color:#7D1BE3"/>
					<stop  offset="0.84" style="stop-color:#FF00BE"/>
				</linearGradient>
				<polygon class="st2" points="17.7,17.5 17.7,49.5 35.2,49.5 39.3,49.5 39.3,53.6 39.3,71.1 71.3,71.1 71.3,17.5 				"/>
			</g>
		</g>
	</g>
	<g>
		<path class="st0" d="M103.7,19l-0.7,5.1H89.7v7.4h12.7l-0.6,5.1h-12v7.9h14l-0.7,5.1H83.1V19H103.7z"/>
		<path class="st0" d="M129.2,29.1c0,4.4-1.8,7.2-5.5,8.6l6.7,12.1h-7.2l-5.7-11.3h-4.1v11.3h-6.4V19h12.8c1.7,0,3.1,0.2,4.3,0.7
			c1.2,0.5,2.2,1.1,2.9,1.9s1.3,1.8,1.7,2.9s0.5,2.3,0.5,3.6V29.1z M113.3,33.4h5.1c1.5,0,2.6-0.4,3.3-1.1c0.7-0.7,1.1-1.8,1.1-3.2
			v-0.7c0-2.8-1.4-4.2-4.3-4.2h-5.2V33.4z"/>
		<path class="st0" d="M139.3,38.8v11h-6.6V19h12.6c1.7,0,3.1,0.2,4.3,0.7c1.2,0.5,2.2,1.1,2.9,2c0.7,0.8,1.3,1.8,1.6,3
			c0.3,1.1,0.5,2.4,0.5,3.7v1c0,6.3-3.4,9.5-10.3,9.5H139.3z M139.3,33.6h4.5c3,0,4.5-1.4,4.5-4.2v-0.8c0-2.9-1.5-4.4-4.4-4.4h-4.5
			V33.6z"/>
		<path class="st0" d="M179.1,50.2c-2.5,0-4.5-0.3-6.2-0.9c-1.7-0.6-3-1.5-4-2.6s-1.7-2.6-2.1-4.4c-0.4-1.7-0.6-3.8-0.6-6.1v-3.2
			c0-2.1,0.2-4,0.6-5.7c0.4-1.8,1.1-3.3,2.2-4.6c1-1.3,2.4-2.3,4.1-3c1.7-0.7,3.9-1.1,6.5-1.1c1.5,0,2.8,0.1,4.1,0.3
			c1.2,0.2,2.3,0.5,3.1,0.8l-1.1,5c-0.7-0.2-1.5-0.4-2.4-0.6c-0.9-0.1-1.8-0.2-2.9-0.2c-1.4,0-2.6,0.1-3.5,0.4
			c-1,0.3-1.8,0.8-2.4,1.4c-0.6,0.7-1,1.6-1.3,2.8c-0.3,1.2-0.4,2.7-0.4,4.5V36c0,1.8,0.1,3.3,0.4,4.5c0.2,1.2,0.7,2.1,1.2,2.7
			s1.4,1.1,2.4,1.3c1,0.2,2.3,0.4,3.8,0.4c0.8,0,1.8,0,2.9-0.1c1.1-0.1,2.1-0.2,3.2-0.4l-1,5.2c-1.1,0.3-2.2,0.4-3.3,0.6
			C181.1,50.2,180.1,50.2,179.1,50.2z"/>
		<path class="st0" d="M196.1,49.8h-6.4V17.7h6.4V49.8z"/>
		<path class="st0" d="M220.8,39.4c0,1.6-0.2,3.1-0.5,4.4c-0.4,1.3-1,2.5-1.8,3.4c-0.8,1-1.9,1.7-3.3,2.2c-1.4,0.5-3,0.8-5,0.8
			c-2.1,0-3.9-0.3-5.3-0.9c-1.4-0.6-2.5-1.4-3.2-2.4c-0.8-1-1.3-2.1-1.7-3.5c-0.3-1.3-0.5-2.7-0.5-4.2v-1.8c0-1.6,0.2-3,0.5-4.4
			c0.3-1.3,0.9-2.5,1.8-3.4c0.8-1,1.9-1.7,3.3-2.3c1.4-0.5,3.1-0.8,5.1-0.8c2.1,0,3.8,0.3,5.2,0.9c1.4,0.6,2.5,1.4,3.3,2.3
			c0.8,1,1.4,2.1,1.7,3.5c0.3,1.3,0.5,2.7,0.5,4.2V39.4z M206,39.9c0,2,0.3,3.4,0.9,4.2c0.6,0.8,1.7,1.3,3.2,1.3
			c1.5,0,2.5-0.4,3.2-1.2s1-2.2,1-4.3v-2.8c0-2-0.3-3.4-0.9-4.2c-0.6-0.8-1.7-1.3-3.2-1.3c-1.5,0-2.5,0.4-3.2,1.2
			c-0.7,0.8-1,2.2-1,4.3V39.9z"/>
		<path class="st0" d="M244.2,27.3v22.5h-5.6l-0.3-2.3c-0.7,0.9-1.7,1.6-2.8,2.1c-1.1,0.5-2.4,0.7-3.7,0.7c-1.2,0-2.2-0.2-3.2-0.5
			c-1-0.3-1.8-0.8-2.5-1.4s-1.2-1.5-1.6-2.4c-0.4-1-0.6-2.1-0.6-3.4V27.3h6.4v13.8c0,1.6,0.3,2.7,0.8,3.3c0.5,0.6,1.4,1,2.6,1
			c1.4,0,2.4-0.4,3-1.1c0.6-0.8,1-2,1-3.8V27.3H244.2z"/>
		<path class="st0" d="M247.6,37.8c0-1.9,0.2-3.6,0.6-4.9c0.4-1.4,1.1-2.6,1.9-3.5s1.8-1.6,2.9-2c1.1-0.4,2.4-0.6,3.7-0.6
			c1.1,0,2.1,0.1,3,0.4c0.9,0.3,1.8,0.7,2.6,1.1V17.7h6.4v32.1h-5.6l-0.3-2.3c-0.3,0.3-0.6,0.6-1,1c-0.4,0.3-0.8,0.6-1.3,0.9
			c-0.5,0.3-1.1,0.5-1.8,0.7s-1.5,0.3-2.5,0.3c-2.8,0-5-0.9-6.4-2.7c-1.4-1.8-2.2-4.6-2.2-8.4V37.8z M254.1,39.3
			c0,2.2,0.3,3.7,0.9,4.6c0.6,0.9,1.7,1.4,3.2,1.4c1.4,0,2.5-0.4,3.1-1.2c0.7-0.8,1-2.1,1-3.9v-7.6c-0.7-0.3-1.3-0.6-1.9-0.7
			c-0.6-0.2-1.2-0.2-1.9-0.2c-1.6,0-2.7,0.5-3.4,1.4c-0.7,0.9-1.1,2.4-1.1,4.4V39.3z"/>
	</g>
</g>
</svg>
