<?xml version="1.0" encoding="utf-8"?>
<!-- Generator: Adobe Illustrator 29.4.0, SVG Export Plug-In . SVG Version: 9.03 Build 0)  -->
<svg version="1.1" id="Layer_1" xmlns="http://www.w3.org/2000/svg" xmlns:xlink="http://www.w3.org/1999/xlink" x="0px" y="0px"
	 viewBox="0 0 273.6 86.9" style="enable-background:new 0 0 273.6 86.9;" xml:space="preserve">
<style type="text/css">
	.st0{fill:#FFFFFF;}
	.st1{fill:#0041C8;}
	.st2{fill:url(#SVGID_1_);}
</style>
<g>
	<g>
		<g>
			<g>
				<g>
					<path class="st0" d="M93.6,55.1h-5.7v15.8h-1.5V55.1h-5.8l0.2-1.3h13L93.6,55.1z"/>
					<path class="st0" d="M98.2,58.3c1,0,1.9,0.1,2.6,0.4c0.7,0.3,1.2,0.6,1.6,1.2c0.4,0.5,0.7,1.1,0.9,1.8s0.3,1.5,0.3,2.4v1.3
						c0,0.9-0.1,1.7-0.3,2.4c-0.2,0.7-0.5,1.3-0.9,1.8c-0.4,0.5-1,0.9-1.7,1.2c-0.7,0.3-1.5,0.4-2.5,0.4c-1,0-1.9-0.1-2.6-0.4
						c-0.7-0.3-1.2-0.6-1.7-1.2c-0.4-0.5-0.7-1.1-0.9-1.8c-0.2-0.7-0.3-1.5-0.3-2.4v-1.3c0-0.9,0.1-1.7,0.3-2.4
						c0.2-0.7,0.5-1.3,1-1.8c0.4-0.5,1-0.9,1.7-1.2C96.4,58.5,97.3,58.3,98.2,58.3z M98.2,69.9c0.7,0,1.3-0.1,1.8-0.3
						s0.9-0.4,1.2-0.8c0.3-0.4,0.5-0.9,0.6-1.4c0.1-0.6,0.2-1.3,0.2-2.1v-1.1c0-0.9-0.1-1.6-0.2-2.2c-0.1-0.6-0.4-1.1-0.7-1.4
						c-0.3-0.4-0.7-0.6-1.2-0.8c-0.5-0.2-1.1-0.3-1.8-0.3c-0.7,0-1.3,0.1-1.8,0.3c-0.5,0.2-0.9,0.4-1.2,0.8
						c-0.3,0.4-0.5,0.9-0.6,1.4c-0.1,0.6-0.2,1.3-0.2,2.1v1.1c0,0.8,0.1,1.5,0.2,2.1c0.1,0.6,0.3,1.1,0.6,1.4
						c0.3,0.4,0.7,0.6,1.2,0.8C96.9,69.8,97.5,69.9,98.2,69.9z"/>
					<path class="st0" d="M111.3,58.3c1,0,1.9,0.1,2.6,0.4c0.7,0.3,1.2,0.6,1.6,1.2c0.4,0.5,0.7,1.1,0.9,1.8s0.3,1.5,0.3,2.4v1.3
						c0,0.9-0.1,1.7-0.3,2.4c-0.2,0.7-0.5,1.3-0.9,1.8c-0.4,0.5-1,0.9-1.7,1.2c-0.7,0.3-1.5,0.4-2.5,0.4c-1,0-1.9-0.1-2.6-0.4
						c-0.7-0.3-1.2-0.6-1.7-1.2c-0.4-0.5-0.7-1.1-0.9-1.8c-0.2-0.7-0.3-1.5-0.3-2.4v-1.3c0-0.9,0.1-1.7,0.3-2.4
						c0.2-0.7,0.5-1.3,1-1.8c0.4-0.5,1-0.9,1.7-1.2C109.5,58.5,110.4,58.3,111.3,58.3z M111.3,69.9c0.7,0,1.3-0.1,1.8-0.3
						c0.5-0.2,0.9-0.4,1.2-0.8c0.3-0.4,0.5-0.9,0.6-1.4c0.1-0.6,0.2-1.3,0.2-2.1v-1.1c0-0.9-0.1-1.6-0.2-2.2
						c-0.1-0.6-0.4-1.1-0.7-1.4c-0.3-0.4-0.7-0.6-1.2-0.8c-0.5-0.2-1.1-0.3-1.8-0.3c-0.7,0-1.3,0.1-1.8,0.3
						c-0.5,0.2-0.9,0.4-1.2,0.8c-0.3,0.4-0.5,0.9-0.6,1.4c-0.1,0.6-0.2,1.3-0.2,2.1v1.1c0,0.8,0.1,1.5,0.2,2.1
						c0.1,0.6,0.3,1.1,0.6,1.4c0.3,0.4,0.7,0.6,1.2,0.8C110,69.8,110.6,69.9,111.3,69.9z"/>
					<path class="st0" d="M119.4,53h1.5v17.9h-1.5V53z"/>
					<path class="st0" d="M128.7,71.2c-0.8,0-1.6-0.1-2.4-0.3c-0.8-0.2-1.6-0.5-2.3-0.9V53h1.5v7.2c0.4-0.7,1-1.2,1.6-1.5
						c0.7-0.3,1.5-0.5,2.4-0.5c0.7,0,1.4,0.1,2,0.3c0.6,0.2,1.1,0.5,1.6,1c0.4,0.5,0.8,1.1,1,1.8c0.2,0.7,0.4,1.6,0.4,2.7v1.1
						c0,2-0.5,3.5-1.4,4.5C131.9,70.7,130.5,71.2,128.7,71.2z M128.6,69.9c0.8,0,1.4-0.1,2-0.3c0.5-0.2,1-0.5,1.3-0.9
						s0.6-0.9,0.7-1.5c0.1-0.6,0.2-1.4,0.2-2.2v-0.6c0-0.8-0.1-1.5-0.2-2.1c-0.1-0.6-0.3-1.1-0.6-1.6c-0.3-0.4-0.6-0.7-1.1-1
						c-0.5-0.2-1.1-0.3-1.8-0.3c-0.6,0-1.1,0.1-1.5,0.2c-0.5,0.1-0.9,0.4-1.2,0.7c-0.3,0.3-0.6,0.8-0.8,1.3c-0.2,0.5-0.3,1.2-0.3,2
						v5.4c0.5,0.2,1,0.4,1.5,0.5C127.4,69.9,128,69.9,128.6,69.9z"/>
					<path class="st0" d="M142.1,58.3c1,0,1.9,0.1,2.6,0.4c0.7,0.3,1.2,0.6,1.6,1.2c0.4,0.5,0.7,1.1,0.9,1.8
						c0.2,0.7,0.3,1.5,0.3,2.4v1.3c0,0.9-0.1,1.7-0.3,2.4c-0.2,0.7-0.5,1.3-0.9,1.8c-0.4,0.5-1,0.9-1.7,1.2
						c-0.7,0.3-1.5,0.4-2.5,0.4c-1,0-1.9-0.1-2.6-0.4c-0.7-0.3-1.2-0.6-1.7-1.2c-0.4-0.5-0.7-1.1-0.9-1.8c-0.2-0.7-0.3-1.5-0.3-2.4
						v-1.3c0-0.9,0.1-1.7,0.3-2.4c0.2-0.7,0.5-1.3,1-1.8c0.4-0.5,1-0.9,1.7-1.2C140.3,58.5,141.1,58.3,142.1,58.3z M142.1,69.9
						c0.7,0,1.3-0.1,1.8-0.3c0.5-0.2,0.9-0.4,1.2-0.8c0.3-0.4,0.5-0.9,0.6-1.4c0.1-0.6,0.2-1.3,0.2-2.1v-1.1c0-0.9-0.1-1.6-0.2-2.2
						c-0.1-0.6-0.4-1.1-0.7-1.4c-0.3-0.4-0.7-0.6-1.2-0.8s-1.1-0.3-1.8-0.3c-0.7,0-1.3,0.1-1.8,0.3c-0.5,0.2-0.9,0.4-1.2,0.8
						c-0.3,0.4-0.5,0.9-0.6,1.4c-0.1,0.6-0.2,1.3-0.2,2.1v1.1c0,0.8,0.1,1.5,0.2,2.1c0.1,0.6,0.3,1.1,0.6,1.4
						c0.3,0.4,0.7,0.6,1.2,0.8C140.8,69.8,141.4,69.9,142.1,69.9z"/>
					<path class="st0" d="M148.7,58.6h1.7l3.4,4.9l3.4-4.9h1.6l-4.2,5.9l4.6,6.4h-1.7l-3.8-5.3l-3.8,5.3h-1.6l4.6-6.4L148.7,58.6z"
						/>
				</g>
			</g>
			<rect x="15.6" y="17.4" class="st0" width="53.7" height="53.7"/>
			<g>
				<polyline class="st1" points="34.3,52.5 34.3,68 18.7,68 18.7,52.5 34.3,52.5 				"/>
				<linearGradient id="SVGID_1_" gradientUnits="userSpaceOnUse" x1="58.6583" y1="16.2112" x2="31.0222" y2="64.0782">
					<stop  offset="7.000000e-02" style="stop-color:#7D1BE3"/>
					<stop  offset="0.84" style="stop-color:#FF00BE"/>
				</linearGradient>
				<polygon class="st2" points="18.7,20.6 18.7,48.9 34.3,48.9 37.8,48.9 37.8,52.5 37.8,68 66.2,68 66.2,20.6 				"/>
			</g>
		</g>
	</g>
	<g>
		<path class="st0" d="M100.2,18.7l-0.7,4.9H86.8v7.1h12.1l-0.6,4.9H86.8v7.6h13.4l-0.7,4.9H80.5V18.7H100.2z"/>
		<path class="st0" d="M124.6,28.4c0,4.2-1.8,6.9-5.3,8.2l6.4,11.6h-6.9l-5.5-10.8h-3.9v10.8h-6.1V18.7h12.3c1.6,0,3,0.2,4.1,0.7
			s2.1,1.1,2.8,1.9c0.7,0.8,1.3,1.7,1.6,2.8c0.3,1.1,0.5,2.2,0.5,3.5V28.4z M109.4,32.4h4.8c1.4,0,2.5-0.3,3.2-1c0.7-0.7,1-1.7,1-3
			v-0.7c0-2.7-1.4-4.1-4.1-4.1h-5V32.4z"/>
		<path class="st0" d="M134.2,37.6v10.5h-6.3V18.7h12c1.6,0,3,0.2,4.1,0.7c1.1,0.5,2.1,1.1,2.8,1.9c0.7,0.8,1.2,1.7,1.6,2.8
			c0.3,1.1,0.5,2.3,0.5,3.5v1c0,6-3.3,9.1-9.9,9.1H134.2z M134.2,32.7h4.3c2.8,0,4.3-1.3,4.3-4v-0.8c0-2.8-1.4-4.2-4.2-4.2h-4.3
			V32.7z"/>
		<path class="st0" d="M172.3,48.6c-2.4,0-4.3-0.3-5.9-0.8c-1.6-0.6-2.9-1.4-3.8-2.5c-1-1.1-1.6-2.5-2-4.2c-0.4-1.7-0.6-3.6-0.6-5.9
			v-3c0-2,0.2-3.8,0.6-5.5c0.4-1.7,1.1-3.1,2.1-4.4c1-1.2,2.3-2.2,4-2.9c1.7-0.7,3.7-1.1,6.2-1.1c1.4,0,2.7,0.1,3.9,0.3
			c1.2,0.2,2.2,0.5,2.9,0.7l-1,4.8c-0.7-0.2-1.4-0.4-2.3-0.5c-0.8-0.1-1.8-0.2-2.8-0.2c-1.3,0-2.4,0.1-3.4,0.4
			c-0.9,0.3-1.7,0.7-2.3,1.4s-1,1.6-1.3,2.7c-0.3,1.1-0.4,2.6-0.4,4.3v2.7c0,1.8,0.1,3.2,0.4,4.3c0.2,1.1,0.6,2,1.2,2.6
			c0.6,0.6,1.3,1,2.3,1.3c1,0.2,2.2,0.4,3.6,0.4c0.8,0,1.7,0,2.7-0.1c1-0.1,2.1-0.2,3.1-0.4l-1,5c-1,0.2-2.1,0.4-3.2,0.5
			S173.3,48.6,172.3,48.6z"/>
		<path class="st0" d="M188.6,48.2h-6.1V17.4h6.1V48.2z"/>
		<path class="st0" d="M212.2,38.2c0,1.5-0.2,3-0.5,4.2c-0.3,1.3-0.9,2.4-1.7,3.3c-0.8,0.9-1.8,1.6-3.1,2.1
			c-1.3,0.5-2.9,0.8-4.8,0.8c-2,0-3.7-0.3-5-0.8c-1.3-0.6-2.3-1.3-3.1-2.3c-0.8-1-1.3-2.1-1.6-3.3c-0.3-1.3-0.5-2.6-0.5-4v-1.7
			c0-1.5,0.2-2.9,0.5-4.2c0.3-1.3,0.9-2.4,1.7-3.3c0.8-0.9,1.8-1.6,3.1-2.2c1.3-0.5,2.9-0.8,4.9-0.8c2,0,3.6,0.3,4.9,0.8
			c1.3,0.6,2.3,1.3,3.1,2.2c0.8,0.9,1.3,2,1.6,3.3c0.3,1.3,0.5,2.6,0.5,4.1V38.2z M198.1,38.7c0,1.9,0.3,3.3,0.9,4.1
			c0.6,0.8,1.6,1.2,3,1.2c1.4,0,2.4-0.4,3.1-1.2c0.6-0.8,1-2.1,1-4.1V36c0-1.9-0.3-3.3-0.9-4.1c-0.6-0.8-1.6-1.2-3-1.2
			c-1.4,0-2.4,0.4-3.1,1.2c-0.6,0.8-1,2.1-1,4.1V38.7z"/>
		<path class="st0" d="M234.6,26.6v21.5h-5.3l-0.3-2.2c-0.7,0.9-1.6,1.6-2.7,2c-1.1,0.5-2.3,0.7-3.6,0.7c-1.1,0-2.1-0.2-3-0.5
			c-0.9-0.3-1.7-0.8-2.4-1.4c-0.7-0.6-1.2-1.4-1.5-2.3c-0.4-0.9-0.5-2-0.5-3.3V26.6h6.1v13.2c0,1.5,0.3,2.5,0.8,3.1
			c0.5,0.6,1.4,0.9,2.5,0.9c1.3,0,2.3-0.4,2.9-1.1c0.6-0.7,0.9-1.9,0.9-3.6V26.6H234.6z"/>
		<path class="st0" d="M237.9,36.7c0-1.8,0.2-3.4,0.6-4.7c0.4-1.3,1-2.4,1.8-3.3c0.8-0.9,1.7-1.5,2.8-1.9s2.3-0.6,3.6-0.6
			c1,0,2,0.1,2.9,0.4c0.9,0.3,1.7,0.6,2.5,1.1V17.4h6.1v30.7h-5.3l-0.3-2.2c-0.2,0.3-0.6,0.6-0.9,0.9c-0.4,0.3-0.8,0.6-1.3,0.9
			s-1.1,0.5-1.8,0.6s-1.5,0.2-2.4,0.2c-2.7,0-4.7-0.9-6.1-2.6c-1.4-1.7-2.1-4.4-2.1-8.1V36.7z M244.1,38.2c0,2.1,0.3,3.5,0.9,4.4
			c0.6,0.9,1.6,1.3,3,1.3c1.4,0,2.4-0.4,3-1.2c0.6-0.8,1-2,1-3.8v-7.2c-0.6-0.3-1.2-0.5-1.8-0.7c-0.6-0.2-1.1-0.2-1.8-0.2
			c-1.5,0-2.6,0.4-3.3,1.3c-0.7,0.9-1,2.3-1,4.2V38.2z"/>
	</g>
</g>
</svg>
