<?xml version="1.0" encoding="utf-8"?>
<!-- Generator: Adobe Illustrator 29.4.0, SVG Export Plug-In . SVG Version: 9.03 Build 0)  -->
<svg version="1.1" id="Layer_1" xmlns="http://www.w3.org/2000/svg" xmlns:xlink="http://www.w3.org/1999/xlink" x="0px" y="0px"
	 viewBox="0 0 310 88.8" style="enable-background:new 0 0 310 88.8;" xml:space="preserve">
<style type="text/css">
	.st0{fill:#0041C8;}
	.st1{fill:url(#SVGID_1_);}
</style>
<g>
	<g>
		<g>
			<path class="st0" d="M111,71.4h-4.6V48.9l-7.1,15h-3.7l-7.2-14.7v22.3h-4.6V40.1h4.6l9,18.5l8.9-18.5h4.7V71.4z"/>
		</g>
		<g>
			<path class="st0" d="M125.1,71.9c-2,0-3.7-0.3-5-0.8c-1.3-0.5-2.4-1.3-3.2-2.3c-0.8-1-1.3-2.1-1.7-3.5c-0.3-1.3-0.5-2.8-0.5-4.3
				v-2c0-1.5,0.2-3,0.5-4.3c0.3-1.3,0.9-2.5,1.7-3.5c0.8-1,1.9-1.8,3.2-2.3c1.3-0.5,3-0.8,4.9-0.8c2,0,3.7,0.3,5,0.8
				c1.3,0.5,2.4,1.3,3.2,2.3c0.8,1,1.3,2.1,1.7,3.5c0.3,1.3,0.5,2.8,0.5,4.3v2c0,1.6-0.2,3-0.5,4.3c-0.3,1.3-0.9,2.5-1.7,3.5
				c-0.8,1-1.9,1.8-3.2,2.3C128.7,71.6,127,71.9,125.1,71.9z M125.2,51.9c-1.1,0-2,0.1-2.7,0.4c-0.7,0.3-1.3,0.7-1.7,1.2
				c-0.4,0.5-0.7,1.3-0.9,2.1c-0.2,0.9-0.3,2-0.3,3.3v2.2c0,1.3,0.1,2.4,0.3,3.3c0.2,0.9,0.5,1.6,0.9,2.1c0.4,0.5,1,0.9,1.7,1.1
				c0.7,0.2,1.6,0.4,2.7,0.4c2.1,0,3.5-0.5,4.3-1.6c0.8-1.1,1.2-2.9,1.2-5.4v-2.2c0-1.3-0.1-2.4-0.3-3.3c-0.2-0.9-0.5-1.6-0.9-2.1
				c-0.4-0.5-1-0.9-1.7-1.2C127.1,52,126.2,51.9,125.2,51.9z"/>
		</g>
		<g>
			<path class="st0" d="M144.6,71.4h-4.7V48.6h4.1l0.3,2.5c0.7-0.9,1.5-1.5,2.4-2c1.1-0.6,2.5-0.8,4.1-0.8c1.1,0,2.1,0.2,2.9,0.4
				l0.2,0.1l-0.9,4l-0.3-0.1c-0.4-0.1-0.8-0.2-1.3-0.2c-1.3-0.2-2.6-0.1-3.6,0.2c-0.7,0.2-1.2,0.6-1.7,1c-0.5,0.5-0.9,1.2-1.1,2
				c-0.3,0.9-0.4,2-0.4,3.3V71.4z"/>
		</g>
		<g>
			<path class="st0" d="M165.3,71.9c-2,0-3.8-0.2-5.2-0.7c-1.4-0.5-2.5-1.2-3.4-2.1c-0.8-0.9-1.5-2.1-1.8-3.5
				c-0.4-1.4-0.5-2.9-0.5-4.7v-1.8c0-1.6,0.2-3.1,0.6-4.5c0.4-1.4,1-2.5,1.8-3.5c0.8-1,1.9-1.7,3.2-2.3c1.3-0.5,2.8-0.8,4.6-0.8
				c1.7,0,3.1,0.3,4.3,0.8c1.2,0.5,2.1,1.2,2.9,2c0.7,0.8,1.3,1.8,1.6,3c0.3,1.1,0.5,2.3,0.5,3.5v1.6c0,1.1-0.2,1.8-0.5,2.1
				c-0.4,0.4-1,0.5-2,0.5h-12.1c0,1.2,0.2,2.1,0.4,2.9c0.2,0.8,0.6,1.5,1.2,2s1.3,0.9,2.2,1.1c1,0.2,2.2,0.4,3.7,0.4
				c1.2,0,2.3-0.1,3.3-0.2c1-0.1,1.8-0.3,2.5-0.4l0.4-0.1L172,71l-0.1,0.1c-0.7,0.3-1.7,0.5-3,0.6C167.7,71.8,166.5,71.9,165.3,71.9
				z M159,58.1h10.2v-0.9c0-1.8-0.4-3.1-1.1-4.1c-0.7-0.9-2-1.4-3.8-1.4c-1.8,0-3.2,0.5-4,1.5C159.5,54.2,159.1,55.8,159,58.1z"/>
		</g>
		<path class="st0" d="M202.7,59.5h-5.5V40.1h-9.5L176,60.3v5.4h14.1v5.7h7.1v-5.7h3.3L202.7,59.5z M183.6,59.5l6.6-11v11H183.6z"/>
		<g>
			<path class="st0" d="M212,71.8c-2.6,0-4.6-0.6-6-1.7c-1.4-1.1-2.1-2.9-2.1-5.3v-0.5c0-1.4,0.2-2.5,0.6-3.4c0.4-0.9,1-1.7,1.8-2.2
				c0.8-0.6,1.7-1,2.8-1.2c1.1-0.2,2.2-0.4,3.5-0.4c1.3,0,2.5,0.1,3.6,0.4c0.9,0.2,1.6,0.6,2.2,1.2v-1.2c0-1.1-0.1-2-0.4-2.7
				c-0.3-0.7-0.7-1.3-1.2-1.7c-0.5-0.4-1.2-0.7-1.9-0.9c-1.6-0.4-3.6-0.4-5.8-0.1c-1.1,0.2-2.1,0.4-3,0.6l-0.3,0.1l0.6-3.7l0.1,0
				c0.8-0.2,1.8-0.4,2.9-0.6c1.1-0.2,2.3-0.3,3.6-0.3c3.2,0,5.7,0.7,7.3,2.2c1.7,1.5,2.5,3.6,2.5,6.5v14.7h-4l-0.3-2.1
				c-0.7,0.9-1.6,1.5-2.6,1.9C214.8,71.6,213.5,71.8,212,71.8z M212.9,60.5c-1.6,0-2.8,0.3-3.5,0.9c-0.7,0.6-1,1.5-1,2.8v0.3
				c0,1.2,0.3,2.2,1,2.7c0.7,0.6,1.9,0.9,3.7,0.9c0.8,0,1.5-0.1,2.2-0.2c0.6-0.1,1.2-0.4,1.7-0.7c0.5-0.3,0.8-0.7,1.1-1.2
				c0.3-0.5,0.4-1.1,0.4-1.8v-0.3c0-1.1-0.4-1.9-1.1-2.5c-0.8-0.6-2-0.9-3.7-0.9H212.9z"/>
		</g>
		<g>
			<path class="st0" d="M232.2,81.4h-4.7V48.6h4.1l0.3,2.2c1.6-1.8,3.9-2.8,7-2.8c1.4,0,2.6,0.2,3.7,0.6c1.1,0.4,2,1.1,2.8,2
				c0.8,0.9,1.3,2,1.7,3.5c0.4,1.4,0.6,3.1,0.6,5v1.7c0,3.6-0.9,6.4-2.6,8.2c-1.7,1.8-4.1,2.8-7.2,2.8c-1.2,0-2.2-0.1-3.2-0.4
				c-0.8-0.2-1.7-0.6-2.6-1.1V81.4z M232.2,66.7c0.7,0.4,1.4,0.7,2.2,0.9c0.8,0.2,1.7,0.3,2.7,0.3c2.2,0,3.7-0.6,4.6-1.7
				c0.9-1.2,1.3-3,1.3-5.5v-1.3c0-2.8-0.4-4.7-1.3-5.8c-0.8-1.1-2.2-1.6-4-1.6c-1.8,0-3.2,0.5-4.1,1.4c-0.9,0.9-1.4,2.6-1.4,4.9
				V66.7z"/>
		</g>
		<g>
			<path class="st0" d="M256.7,81.4H252V48.6h4.1l0.3,2.2c1.6-1.8,3.9-2.8,7-2.8c1.4,0,2.6,0.2,3.7,0.6c1.1,0.4,2,1.1,2.8,2
				c0.8,0.9,1.3,2,1.7,3.5c0.4,1.4,0.6,3.1,0.6,5v1.7c0,3.6-0.9,6.4-2.6,8.2c-1.7,1.8-4.1,2.8-7.2,2.8c-1.2,0-2.2-0.1-3.2-0.4
				c-0.8-0.2-1.7-0.6-2.6-1.1V81.4z M256.7,66.7c0.7,0.4,1.4,0.7,2.2,0.9c0.8,0.2,1.7,0.3,2.7,0.3c2.2,0,3.7-0.6,4.6-1.7
				c0.9-1.2,1.3-3,1.3-5.5v-1.3c0-2.8-0.4-4.7-1.3-5.8c-0.8-1.1-2.2-1.6-4-1.6c-1.8,0-3.2,0.5-4.1,1.4c-0.9,0.9-1.4,2.6-1.4,4.9
				V66.7z"/>
		</g>
		<g>
			<path class="st0" d="M282.8,71.8c-1.3,0-2.6-0.1-3.9-0.3c-1.3-0.2-2.6-0.5-3.8-0.9l-0.2-0.1l0.9-3.7L276,67
				c1.2,0.3,2.4,0.6,3.4,0.8c1,0.2,2.2,0.2,3.4,0.2c1.8,0,3.1-0.2,3.9-0.7c0.8-0.4,1.2-1.2,1.2-2.4c0-1-0.2-1.7-0.7-2
				c-0.5-0.4-1.2-0.6-2.2-0.8l-3.2-0.4c-2.3-0.3-4-1-5.1-2c-1.1-1.1-1.6-2.5-1.6-4.3v-0.3c0-1.2,0.2-2.2,0.7-3
				c0.5-0.9,1.2-1.6,2-2.1c0.9-0.5,1.9-1,3.1-1.2c1.2-0.3,2.5-0.4,3.9-0.4c1.5,0,2.8,0.1,4,0.3c1.2,0.2,2.2,0.5,2.9,0.7l0.2,0.1
				l-0.9,3.7l-0.3-0.1c-1-0.3-1.9-0.5-2.8-0.7c-0.9-0.1-2-0.2-3.2-0.2c-1.9,0-3.2,0.2-4.1,0.7c-0.8,0.5-1.2,1.2-1.2,2.2
				c0,0.9,0.2,1.5,0.6,1.8c0.4,0.4,1.3,0.6,2.6,0.8l3.5,0.4c1.1,0.1,2.1,0.4,2.9,0.8c0.8,0.4,1.4,0.9,1.9,1.4c0.5,0.6,0.8,1.2,1,2
				c0.2,0.7,0.3,1.5,0.3,2.3v0.3c0,1.3-0.3,2.5-0.8,3.4c-0.5,0.9-1.2,1.7-2.1,2.2c-0.9,0.5-1.9,0.9-3.1,1.2
				C285.3,71.7,284.1,71.8,282.8,71.8z"/>
		</g>
	</g>
	<polyline class="st0" points="35.1,53.8 35.1,71.4 17.6,71.4 17.6,53.8 35.1,53.8 	"/>
	<linearGradient id="SVGID_1_" gradientUnits="userSpaceOnUse" x1="62.7188" y1="12.799" x2="31.4517" y2="66.9552">
		<stop  offset="7.000000e-02" style="stop-color:#009BFF"/>
		<stop  offset="0.84" style="stop-color:#0BFFCC"/>
	</linearGradient>
	<polygon class="st1" points="17.6,17.7 17.6,49.8 35.1,49.8 39.1,49.8 39.1,53.8 39.1,71.4 71.2,71.4 71.2,17.7 	"/>
</g>
</svg>
