<?xml version="1.0" encoding="utf-8"?>
<!-- Generator: Adobe Illustrator 29.4.0, SVG Export Plug-In . SVG Version: 9.03 Build 0)  -->
<svg version="1.1" id="Layer_1" xmlns="http://www.w3.org/2000/svg" xmlns:xlink="http://www.w3.org/1999/xlink" x="0px" y="0px"
	 viewBox="0 0 274.2 85" style="enable-background:new 0 0 274.2 85;" xml:space="preserve">
<style type="text/css">
	.st0{fill:#FFFFFF;}
	.st1{fill:#0041C8;}
	.st2{fill:url(#SVGID_1_);}
</style>
<g>
	<g>
		<g>
			<path class="st0" d="M100.4,69.7h-4.1v-20L90,63h-3.3l-6.4-13.1v19.8h-4.1V41.9h4.1l8,16.5l7.9-16.5h4.1V69.7z"/>
		</g>
		<g>
			<path class="st0" d="M113,70.2c-1.8,0-3.3-0.2-4.5-0.7c-1.2-0.5-2.1-1.2-2.8-2c-0.7-0.9-1.2-1.9-1.5-3.1
				c-0.3-1.2-0.4-2.5-0.4-3.9v-1.8c0-1.4,0.2-2.7,0.4-3.8c0.3-1.2,0.8-2.2,1.5-3.1c0.7-0.9,1.7-1.6,2.9-2c1.2-0.5,2.6-0.7,4.4-0.7
				c1.8,0,3.3,0.2,4.5,0.7c1.2,0.5,2.1,1.2,2.8,2c0.7,0.9,1.2,1.9,1.5,3.1c0.3,1.2,0.4,2.4,0.4,3.8v1.8c0,1.4-0.2,2.7-0.4,3.9
				c-0.3,1.2-0.8,2.2-1.5,3.1c-0.7,0.9-1.7,1.6-2.9,2C116.2,69.9,114.7,70.2,113,70.2z M113,52.4c-0.9,0-1.7,0.1-2.4,0.4
				c-0.6,0.2-1.1,0.6-1.5,1.1c-0.4,0.5-0.7,1.1-0.8,1.9c-0.2,0.8-0.3,1.8-0.3,2.9v2c0,1.1,0.1,2.1,0.3,2.9c0.2,0.8,0.4,1.4,0.8,1.9
				c0.4,0.5,0.9,0.8,1.5,1c0.6,0.2,1.4,0.3,2.4,0.3c1.8,0,3.1-0.5,3.8-1.4c0.7-0.9,1.1-2.5,1.1-4.8v-2c0-1.1-0.1-2.1-0.2-2.9
				c-0.2-0.8-0.4-1.4-0.8-1.9c-0.4-0.5-0.9-0.8-1.5-1.1C114.8,52.5,114,52.4,113,52.4z"/>
		</g>
		<g>
			<path class="st0" d="M130.3,69.7h-4.2V49.4h3.7l0.3,2.3c0.6-0.8,1.3-1.4,2.1-1.8c1-0.5,2.2-0.8,3.6-0.8c1,0,1.9,0.1,2.6,0.4
				l0.2,0.1l-0.8,3.5l-0.2-0.1c-0.3-0.1-0.7-0.1-1.1-0.2c-1.2-0.2-2.3-0.1-3.2,0.2c-0.6,0.2-1.1,0.5-1.5,0.9c-0.4,0.4-0.8,1-1,1.8
				c-0.2,0.8-0.4,1.7-0.4,2.9V69.7z"/>
		</g>
		<g>
			<path class="st0" d="M148.8,70.2c-1.8,0-3.4-0.2-4.6-0.6c-1.2-0.4-2.3-1.1-3-1.9c-0.8-0.8-1.3-1.9-1.6-3.1
				c-0.3-1.2-0.5-2.6-0.5-4.2v-1.6c0-1.4,0.2-2.8,0.5-4c0.3-1.2,0.9-2.3,1.6-3.1c0.7-0.9,1.7-1.6,2.8-2c1.1-0.5,2.5-0.7,4.1-0.7
				c1.5,0,2.8,0.2,3.8,0.7c1,0.4,1.9,1.1,2.5,1.8c0.6,0.8,1.1,1.6,1.4,2.6c0.3,1,0.4,2,0.4,3.1v1.4c0,1-0.2,1.6-0.5,1.9
				c-0.3,0.3-0.9,0.5-1.8,0.5h-10.8c0,1,0.2,1.9,0.4,2.6c0.2,0.7,0.6,1.3,1,1.8s1.1,0.8,2,1c0.8,0.2,2,0.3,3.3,0.3
				c1.1,0,2-0.1,2.9-0.2c0.9-0.1,1.6-0.3,2.2-0.4l0.3-0.1l-0.6,3.2l-0.1,0c-0.7,0.2-1.5,0.4-2.6,0.6
				C150.9,70.1,149.8,70.2,148.8,70.2z M143.2,57.9h9.1v-0.8c0-1.6-0.3-2.8-1-3.6c-0.6-0.8-1.8-1.2-3.4-1.2c-1.6,0-2.8,0.4-3.6,1.3
				C143.6,54.5,143.2,55.9,143.2,57.9z"/>
		</g>
		<path class="st0" d="M182,59.1h-4.9V41.9h-8.4l-10.4,17.9v4.8h12.5v5.1h6.3v-5.1h3L182,59.1z M164.9,59.1l5.8-9.7v9.7H164.9z"/>
		<g>
			<path class="st0" d="M190.3,70.1c-2.3,0-4.1-0.5-5.3-1.5c-1.2-1-1.8-2.6-1.8-4.7v-0.5c0-1.2,0.2-2.2,0.6-3c0.4-0.8,0.9-1.5,1.6-2
				c0.7-0.5,1.5-0.9,2.5-1.1c0.9-0.2,2-0.3,3.1-0.3c1.2,0,2.3,0.1,3.2,0.4c0.8,0.2,1.4,0.6,2,1v-1.1c0-0.9-0.1-1.8-0.4-2.4
				c-0.2-0.6-0.6-1.1-1.1-1.5c-0.5-0.4-1-0.7-1.7-0.8c-1.4-0.4-3.2-0.3-5.1-0.1c-1,0.1-1.9,0.3-2.7,0.5l-0.3,0.1l0.6-3.3l0.1,0
				c0.7-0.2,1.6-0.4,2.6-0.5c1-0.2,2.1-0.2,3.2-0.2c2.8,0,5,0.7,6.5,1.9c1.5,1.3,2.2,3.2,2.2,5.8v13h-3.6l-0.3-1.8
				c-0.6,0.8-1.4,1.3-2.3,1.6C192.8,69.9,191.6,70.1,190.3,70.1z M191.1,60c-1.4,0-2.4,0.3-3.1,0.8c-0.6,0.5-0.9,1.4-0.9,2.5v0.3
				c0,1.1,0.3,1.9,0.9,2.4c0.6,0.5,1.7,0.8,3.3,0.8c0.7,0,1.4-0.1,1.9-0.2c0.6-0.1,1.1-0.3,1.5-0.6c0.4-0.3,0.7-0.6,1-1.1
				c0.2-0.4,0.4-1,0.4-1.6V63c0-1-0.3-1.7-1-2.2c-0.7-0.5-1.8-0.8-3.3-0.8H191.1z"/>
		</g>
		<g>
			<path class="st0" d="M208.2,78.6H204V49.4h3.7l0.3,2c1.4-1.6,3.5-2.5,6.2-2.5c1.2,0,2.3,0.2,3.3,0.6c1,0.4,1.8,1,2.5,1.8
				c0.7,0.8,1.2,1.8,1.5,3.1c0.3,1.2,0.5,2.7,0.5,4.5v1.5c0,3.2-0.8,5.7-2.3,7.3c-1.5,1.6-3.7,2.5-6.4,2.5c-1,0-2-0.1-2.8-0.4
				c-0.7-0.2-1.5-0.5-2.3-0.9V78.6z M208.2,65.6c0.6,0.3,1.3,0.6,1.9,0.8c0.7,0.2,1.5,0.3,2.4,0.3c1.9,0,3.3-0.5,4-1.5
				c0.8-1,1.2-2.7,1.2-4.9V59c0-2.4-0.4-4.2-1.1-5.1c-0.7-0.9-1.9-1.4-3.6-1.4c-1.6,0-2.8,0.4-3.6,1.3c-0.8,0.8-1.2,2.3-1.2,4.4
				V65.6z"/>
		</g>
		<g>
			<path class="st0" d="M230,78.6h-4.2V49.4h3.7l0.3,2c1.4-1.6,3.5-2.5,6.2-2.5c1.2,0,2.3,0.2,3.3,0.6c1,0.4,1.8,1,2.5,1.8
				c0.7,0.8,1.2,1.8,1.5,3.1c0.3,1.2,0.5,2.7,0.5,4.5v1.5c0,3.2-0.8,5.7-2.3,7.3c-1.5,1.6-3.7,2.5-6.4,2.5c-1,0-2-0.1-2.8-0.4
				c-0.7-0.2-1.5-0.5-2.3-0.9V78.6z M230,65.6c0.6,0.3,1.3,0.6,1.9,0.8c0.7,0.2,1.5,0.3,2.4,0.3c1.9,0,3.3-0.5,4-1.5
				c0.8-1,1.2-2.7,1.2-4.9V59c0-2.4-0.4-4.2-1.1-5.1c-0.7-0.9-1.9-1.4-3.6-1.4c-1.6,0-2.8,0.4-3.6,1.3c-0.8,0.8-1.2,2.3-1.2,4.4
				V65.6z"/>
		</g>
		<g>
			<path class="st0" d="M253.2,70.1c-1.2,0-2.3-0.1-3.5-0.3c-1.2-0.2-2.3-0.4-3.4-0.8l-0.2-0.1l0.8-3.2l0.2,0.1
				c1.1,0.3,2.1,0.5,3,0.7c0.9,0.1,1.9,0.2,3,0.2c1.6,0,2.7-0.2,3.5-0.6c0.7-0.4,1-1.1,1-2.2c0-0.9-0.2-1.5-0.6-1.8
				c-0.4-0.3-1.1-0.6-2-0.7l-2.8-0.4c-2-0.3-3.6-0.9-4.5-1.8c-0.9-0.9-1.4-2.2-1.4-3.8v-0.3c0-1,0.2-1.9,0.6-2.7
				c0.4-0.8,1-1.4,1.8-1.9c0.8-0.5,1.7-0.9,2.7-1.1c1-0.2,2.2-0.4,3.5-0.4c1.3,0,2.5,0.1,3.6,0.3c1,0.2,1.9,0.4,2.6,0.6l0.2,0.1
				l-0.8,3.2l-0.2-0.1c-0.9-0.3-1.7-0.5-2.5-0.6c-0.8-0.1-1.8-0.2-2.8-0.2c-1.7,0-2.9,0.2-3.6,0.6c-0.7,0.4-1,1-1,1.9
				c0,0.8,0.2,1.3,0.6,1.6c0.4,0.3,1.2,0.6,2.3,0.7l3.2,0.4c1,0.1,1.9,0.4,2.6,0.7c0.7,0.3,1.3,0.8,1.7,1.3c0.4,0.5,0.7,1.1,0.9,1.7
				c0.2,0.6,0.3,1.3,0.3,2v0.3c0,1.2-0.2,2.2-0.7,3c-0.5,0.8-1.1,1.5-1.9,1.9c-0.8,0.5-1.7,0.8-2.7,1
				C255.4,70,254.3,70.1,253.2,70.1z"/>
		</g>
	</g>
	<rect x="12.4" y="15.7" class="st0" width="54.1" height="54.1"/>
	<polyline class="st1" points="31.2,50.9 31.2,66.5 15.6,66.5 15.6,50.9 31.2,50.9 	"/>
	<linearGradient id="SVGID_1_" gradientUnits="userSpaceOnUse" x1="55.7547" y1="14.4544" x2="27.9594" y2="62.5973">
		<stop  offset="7.000000e-02" style="stop-color:#009BFF"/>
		<stop  offset="0.84" style="stop-color:#0BFFCC"/>
	</linearGradient>
	<polygon class="st2" points="15.6,18.8 15.6,47.4 31.2,47.4 34.8,47.4 34.8,50.9 34.8,66.5 63.3,66.5 63.3,18.8 	"/>
</g>
</svg>
